<svg height="512" viewBox="0 0 64 64" width="512" xmlns="http://www.w3.org/2000/svg"><g id="_07-Concealer" data-name="07-Concealer"><path d="m21 17.4v3.6a7.943 7.943 0 0 1 -7-4l-3 3v-2.6a4.662 4.662 0 0 1 4.88-4.4h.24a4.662 4.662 0 0 1 4.88 4.4z" fill="#885655"/><path d="m21 22v.5a4.768 4.768 0 0 1 -5 4.5 5.273 5.273 0 0 1 -3.54-1.32 4.279 4.279 0 0 1 -1.46-3.18v-2.5l3-3a7.943 7.943 0 0 0 7 4z" fill="#fef9f6"/><path d="m24 53v10h-16v-10h2 12z" fill="#f0e5e4"/><path d="m1 1h30v3h-30z" fill="#cc8d6c"/><path d="m22 50v3h-12v-3h6z" fill="#b57d60"/><path d="m11 20v2.5a4.279 4.279 0 0 0 1.46 3.18 5.273 5.273 0 0 0 3.54 1.32 4.768 4.768 0 0 0 5-4.5v-5.1a4.662 4.662 0 0 0 -4.88-4.4h-.24a4.662 4.662 0 0 0 -4.88 4.4zm-10-16h30s-3 18-3 26l-.79 16.22a4 4 0 0 1 -3.99 3.78h-14.44a4 4 0 0 1 -3.99-3.78l-.79-16.22c0-8-3-26-3-26z" fill="#e6a382"/><path d="m10 50h5v3h-5z" fill="#94664e"/><path d="m8 53h5v4a4 4 0 0 0 4 4h7v2h-16z" fill="#dbd1d0"/><path d="m20 53h2v8h-2z" fill="#fff3f2"/><path d="m15.7 41.585a14.362 14.362 0 0 1 -6.7-11.585c0-8-3-26-3-26h-5s3 18 3 26l.79 16.22a4 4 0 0 0 3.99 3.78h14.44a4 4 0 0 0 3.99-3.78l.06-1.237a23.425 23.425 0 0 1 -11.57-3.398z" fill="#d49778"/><path d="m8 32h16v1h-16z" fill="#fef9f6"/><path d="m11 36h10v1h-10z" fill="#fef9f6"/><path d="m42 27a3 3 0 0 1 -6 0c0-1.66 2-5 3-5s3 3.34 3 5z" fill="#c99269"/><path d="m44 53v8a2.006 2.006 0 0 1 -2 2h-6a2.006 2.006 0 0 1 -2-2v-8z" fill="#f0e5e4"/><path d="m34 50h10v3h-10z" fill="#945f3d"/><path d="m31 7h16v4h-16z" fill="#805235"/><path d="m47 11-3 39h-10l-3-39zm-8 19a3 3 0 0 0 3-3c0-1.66-2-5-3-5s-3 3.34-3 5a3 3 0 0 0 3 3z" fill="#ac6e47"/><path d="m42 61h-2a2 2 0 0 1 -2-2v-6h-4v8a2.006 2.006 0 0 0 2 2h6a2.006 2.006 0 0 0 2-2v-2a2 2 0 0 1 -2 2z" fill="#dbd1d0"/><path d="m34 50h4v3h-4z" fill="#6e462d"/><path d="m36.335 28.353a2.976 2.976 0 0 1 -.335-1.353 3.65 3.65 0 0 1 .158-.952l-1.158-15.048h-4l3 39h4z" fill="#945f3d"/><g fill="#6e462d"><path d="m31 7h2v4h-2z"/><path d="m45 7h2v4h-2z"/><path d="m40.5 9h1v2h-1z"/><path d="m42.5 9h1v2h-1z"/><path d="m38.5 9h1v2h-1z"/><path d="m36.5 9h1v2h-1z"/><path d="m34.5 9h1v2h-1z"/></g><path d="m56.973 26.591a2.953 2.953 0 0 1 -2.531 3.38 3.055 3.055 0 0 1 -3.41-2.59c-.25-1.65 1.24-5.25 2.23-5.38s3.461 2.94 3.711 4.59z" fill="#d45f73"/><path d="m62.984 60.063a1.976 1.976 0 0 1 -1.76 2.19l-6.072.73a2.017 2.017 0 0 1 -2.28-1.7l-1.01-7.81 10.112-1.22z" fill="#f0e5e4"/><path d="m61.594 49.323.38 2.93-10.112 1.22-.38-2.93z" fill="#e3b58f"/><path d="m59.183 7 .5 3.9-16.173 1.96-.51-3.9z" fill="#e3b58f"/><path d="m59.683 10.9 1.911 38.423-10.112 1.22-7.972-37.683zm-5.241 19.071a2.953 2.953 0 0 0 2.531-3.38c-.25-1.65-2.721-4.72-3.711-4.59s-2.48 3.73-2.23 5.38a3.055 3.055 0 0 0 3.41 2.59z" fill="#f4c39a"/><path d="m62.72 58.02a2 2 0 0 1 -1.7 2.263l-2.955.422a2 2 0 0 1 -2.273-1.781l-.585-5.855-3.345.4 1.01 7.81a2.017 2.017 0 0 0 2.28 1.7l6.072-.73a1.976 1.976 0 0 0 1.76-2.19z" fill="#dbd1d0"/><path d="m55 51-.177-.861-3.341.404.38 2.93 3.345-.404z" fill="#c29b7a"/><path d="m47 12-.576-3.455-3.424.415.51 3.9 3.578-.433z" fill="#c29b7a"/><path d="m47.088 12.427-3.578.433 7.972 37.683 3.341-.404z" fill="#e3b58f"/><path d="m40 9.96.136 1.04h3.131l-.185-1.413z" fill="#6e462d"/><path d="m43.51 12.86-.243-1.86h-3.131l.374 2.86 4.598 21.735.856-11.133z" fill="#6e462d"/></g></svg>