<svg id="Capa_1" enable-background="new 0 0 512 512" height="512" viewBox="0 0 512 512" width="512" xmlns="http://www.w3.org/2000/svg"><g><path d="m6.047 311.566c-3.93-17.758-6.016-36.21-6.047-55.143-.228-141.204 114.797-256.423 256.001-256.423 141.384 0 255.999 114.616 255.999 256 0 18.823-2.031 37.17-5.887 54.837-2.448 11.215-12.455 19.163-23.934 19.163h-453.222c-11.018 0-20.529-7.676-22.91-18.434z" fill="#07a9f0"/><path d="m489.511 238.434c0 117.389-95.163 212.552-212.552 212.552s-212.553-95.162-212.553-212.552 95.163-212.552 212.552-212.552 212.553 95.163 212.553 212.552z" fill="#40c1fa"/><path d="m330 270v-160c0-5.523 4.477-10 10-10h60c5.523 0 10 4.477 10 10v160c0 5.523-4.477 10-10 10h-60c-5.523 0-10-4.477-10-10z" fill="#0691ce"/><path d="m506.294 310c-24.789 115.453-127.435 202-250.294 202s-225.505-86.547-250.294-202z" fill="#453d83"/><path d="m395 280.957h-69c-5.523 0-10-4.477-10-10v-20.957c0-5.523 4.477-10 10-10h69c5.523 0 10 4.477 10 10v20.957c0 5.523-4.477 10-10 10z" fill="#51489a"/><path d="m434 280.957h-44c-5.523 0-10-4.477-10-10v-20.957c0-5.523 4.477-10 10-10h44c5.523 0 10 4.477 10 10v20.957c0 5.523-4.477 10-10 10z" fill="#5f55af"/><path d="m450 402.5h-140c-5.523 0-10-4.477-10-10v-112.5c0-5.523 4.477-10 10-10h140c5.523 0 10 4.477 10 10v112.5c0 5.523-4.477 10-10 10z" fill="#b4e7fd"/><path d="m405 365c-30.376 0-55-24.624-55-55v-30c0-5.523 4.477-10 10-10h90c5.523 0 10 4.477 10 10v30c0 30.376-24.624 55-55 55z" fill="#d5f1fe"/><path d="m433.072 334.615c-5.523 0-10-4.477-10-10v-29.231c0-5.523 4.477-10 10-10 5.523 0 10 4.477 10 10v29.231c0 5.523-4.477 10-10 10z" fill="#fff5f5"/><path d="m60.786 160.086c-3.919 2.976-9.531 2.676-13.109-.901-2.622-2.622-3.483-6.337-2.585-9.677-.319-.305-.636-.615-.951-.929-9.065-9.065-14.135-19.823-14.142-28.284 8.461.007 19.219 5.077 28.284 14.142.315.315.624.632.929.95 3.34-.898 7.056-.037 9.677 2.585 3.577 3.577 3.877 9.189.901 13.108 1.728 4.09-4.915 10.733-9.004 9.006z" fill="#453d83"/><path d="m206.777 282.929-14.142 14.142c-3.905 3.905-10.237 3.905-14.142 0l-127.28-127.279c-3.905-3.905-3.905-10.237 0-14.142l14.142-14.142c3.905-3.905 10.237-3.905 14.142 0l127.279 127.279c3.906 3.905 3.906 10.237.001 14.142z" fill="#5f55af"/><path d="m63.875 142.988 1.48-1.48c3.905-3.905 10.237-3.905 14.142 0l113.878 113.878c3.905 3.905 3.905 10.237 0 14.142l-1.48 1.48c-3.905 3.905-10.237 3.905-14.142 0l-113.878-113.878c-3.905-3.905-3.905-10.237 0-14.142z" fill="#6a61b4"/><path d="m183.776 197.713-14.027 5.314-71.203-187.966 14.027-5.314z" fill="#5f55af"/><path d="m128.103 68.878-1.311.514c-6.565 2.572-13.971-.665-16.543-7.229l-14.677-37.46c-2.572-6.564.665-13.971 7.229-16.543l1.311-.514c6.565-2.572 13.971.665 16.543 7.229l14.677 37.459c2.572 6.565-.664 13.972-7.229 16.544z" fill="#51489a"/><path d="m86.065 17.4c-.978-2.583.322-5.469 2.905-6.447l28.055-10.627c2.582-.978 5.469.322 6.447 2.904.978 2.583-.322 5.469-2.905 6.447l-28.055 10.627c-2.582.979-5.469-.322-6.447-2.904zm51.576 23.236c-.978-2.582-3.865-3.883-6.447-2.905l-28.054 10.628c-2.582.978-3.883 3.865-2.905 6.447s3.865 3.883 6.447 2.905l28.055-10.627c2.582-.979 3.882-3.865 2.904-6.448zm2.409 20.475c-.978-2.582-3.865-3.883-6.447-2.905l-18.703 7.085c-2.582.978-3.883 3.865-2.905 6.447.978 2.583 3.865 3.883 6.447 2.905l18.703-7.085c2.583-.979 3.883-3.865 2.905-6.447zm-7.156-40.063c-.978-2.582-3.865-3.883-6.447-2.905l-32.73 12.398c-2.582.978-3.883 3.865-2.905 6.447s3.865 3.883 6.447 2.905l32.73-12.398c2.583-.979 3.883-3.865 2.905-6.447z" fill="#453d83"/><path d="m170.545 130.948c1.413 3.73-.465 7.899-4.195 9.312l-21.612 8.187c-3.73 1.413-7.899-.465-9.312-4.195-1.413-3.73.465-7.899 4.195-9.312l21.612-8.187c3.73-1.413 7.899.465 9.312 4.195z" fill="#6a61b4"/><path d="m180.841 137.741 41.525 109.621c1.956 5.165-.644 10.938-5.809 12.894l-29.925 11.336c-5.165 1.956-10.938-.644-12.894-5.809l-41.525-109.621c-1.956-5.165.644-10.938 5.809-12.894l29.925-11.336c5.165-1.956 10.938.644 12.894 5.809z" fill="#51489a"/><path d="m191.075 164.757 31.291 82.605c1.956 5.165-.644 10.938-5.809 12.894l-9.663 3.66c-5.165 1.956-10.938-.644-12.894-5.809l-31.291-82.605c-1.956-5.165.644-10.938 5.809-12.894l9.663-3.66c5.164-1.957 10.937.644 12.894 5.809z" fill="#5f55af"/><path d="m260 310c0 60.751-49.249 110-110 110s-110-49.249-110-110 49.249-110 110-110 110 49.249 110 110z" fill="#d5f1fe"/><path d="m260 310.128c-.014 12.33-2.057 24.185-5.813 35.248-1.716 5.055-6.495 8.432-11.834 8.432-8.591 0-14.584-8.445-11.825-16.581 3.262-9.622 3.004-20.012 2.557-30.819-1.827-44.115-35.885-78.184-80.01-79.749-20.845-.739-40.113 4.467-55.278 16.303-8.157 6.366-20.082.377-20.082-9.97 0-3.879 1.801-7.535 4.864-9.914 19.141-14.868 43.323-23.627 69.55-23.131 18.969.359 36.78 5.238 52.252 14.106 33.226 19.045 55.666 55.336 55.619 96.075z" fill="#fff5f5"/><path d="m230 310c0 44.183-35.817 80-80 80s-80-35.817-80-80 35.817-80 80-80 80 35.817 80 80z" fill="#72d1fb"/><path d="m191.931 241.856-110.075 110.075c-5.752-9.327-9.642-19.925-11.152-31.274l89.953-89.953c11.349 1.51 21.946 5.4 31.274 11.152zm15.664 12.621-113.119 113.118c10.002 9.645 22.51 16.708 36.451 20.118l96.785-96.785c-3.41-13.942-10.473-26.449-20.117-36.451z" fill="#93dcfc"/><path d="m150 395c-46.869 0-85-38.131-85-85s38.131-85 85-85 85 38.131 85 85-38.131 85-85 85zm0-160c-41.355 0-75 33.645-75 75s33.645 75 75 75 75-33.645 75-75-33.645-75-75-75z" fill="#3f97a4"/><path d="m369.706 58.823-56.471 329.412h-81.176l-57.647-329.412z" fill="#ffde91"/><path d="m288.483 342.941c-19.958 0-36.619-15.227-38.411-35.105l-22.44-249.012h142.073l-43.212 252.068c-3.173 18.514-19.225 32.049-38.01 32.049z" fill="#fcf2b6"/><path d="m384.118 51.765c0 5.523-4.477 10-10 10h-204.118c-5.523 0-10-4.477-10-10 0-5.523 4.477-10 10-10h204.118c5.523 0 10 4.477 10 10z" fill="#fcf2b6"/><path d="m374.118 61.765h-152.033c-5.523 0-10-4.477-10-10 0-5.523 4.477-10 10-10h152.033c5.523 0 10 4.477 10 10 0 5.523-4.477 10-10 10z" fill="#fff5f5"/><path d="m320.294 386.177v48.823c0 2.761-2.239 5-5 5h-86.471c-2.761 0-5-2.239-5-5v-48.823c0-2.761 2.239-5 5-5h86.471c2.762 0 5 2.238 5 5z" fill="#ffc14f"/><path d="m286.368 149.248h-28.617c-15.85 0-23.242-19.96-10.981-30.005.088-.072.177-.144.265-.215 8.731-7.029 16.164-15.532 22.246-24.946.102-.157 4.891-1.042 4.891-1.042 6.219 9.73 13.718 18.663 22.75 25.857.12.096.24.192.359.29 12.319 10.044 4.98 30.061-10.913 30.061zm25.691 20.623h-80c-2.761 0-5 2.239-5 5s2.239 5 5 5h80c2.761 0 5-2.239 5-5s-2.239-5-5-5zm-15 25c0 2.761-2.239 5-5 5h-40c-2.761 0-5-2.239-5-5s2.239-5 5-5h40c2.761 0 5 2.238 5 5zm-10.364 65.608c0 2.761-2.239 5-5 5h-19.272c-2.761 0-5-2.239-5-5s2.239-5 5-5h19.272c2.761 0 5 2.238 5 5z" fill="#ffc14f"/><path d="m259.611 149.248h-1.86c-15.85 0-23.242-19.96-10.981-30.005.088-.072.177-.144.265-.215 8.345-6.719 15.504-14.783 21.431-23.702.378-.569 1.5-3.162 2.045-3.55.972-.693 2.466-.608 3.247.614l.415.65c1.183 1.85 2.412 3.672 3.689 5.458-4.132 7.25-8.697 13.939-13.687 19.914-.089.106-.177.213-.265.32-6.715 8.181-7.535 20.787-4.299 30.516zm12.448 132.069c-5.523 0-10 4.477-10 10s4.477 10 10 10 10-4.477 10-10-4.477-10-10-10z" fill="#ffa90b"/><path d="m103.925 432.5h-48.925c-8.284 0-15-6.716-15-15 0-8.284 6.716-15 15-15h48.925c8.284 0 15 6.716 15 15 0 8.284-6.715 15-15 15z" fill="#93dcfc"/><path d="m243.925 432.5h-158.925c-8.284 0-15-6.716-15-15 0-8.284 6.716-15 15-15h158.925c8.284 0 15 6.716 15 15 0 8.284-6.715 15-15 15z" fill="#b4e7fd"/><path d="m338.83 360c-11.046 0-20-8.954-20-20v-120c0-11.046 8.954-20 20-20 11.046 0 20 8.954 20 20v120c0 11.046-8.954 20-20 20z" fill="#ff2ea6"/><path d="m358.83 220c0 11.046-8.954 20-20 20s-20-8.954-20-20 8.954-20 20-20 20 8.954 20 20z" fill="#ff72c3"/><path d="m360.83 350h-44c-5.523 0-10-4.477-10-10v-40c0-5.523 4.477-10 10-10h44c5.523 0 10 4.477 10 10v40c0 5.523-4.477 10-10 10z" fill="#51489a"/><path d="m360.83 350h-10.83c-5.523 0-10-4.477-10-10v-40c0-5.523 4.477-10 10-10h10.83c5.523 0 10 4.477 10 10v40c0 5.523-4.477 10-10 10z" fill="#5f55af"/><path d="m368.83 466.149h-60c-5.523 0-10-4.477-10-10v-132.958c0-5.523 4.477-10 10-10h60c5.523 0 10 4.477 10 10v132.957c0 5.524-4.477 10.001-10 10.001z" fill="#8078bf"/><path d="m368.83 436.331h-28.83c-5.523 0-10-4.477-10-10v-103.14c0-5.523 4.477-10 10-10h28.83c5.523 0 10 4.477 10 10v103.14c0 5.523-4.477 10-10 10z" fill="#958fca"/><path d="m257.506 399.085c.923.923 1.829 1.857 2.716 2.802 56.999 60.651-31.052 148.701-91.702 91.702-.945-.888-1.879-1.793-2.802-2.716-33.233-33.233-43.562-80.696-30.987-122.775 42.079-12.575 89.542-2.246 122.775 30.987z" fill="#ff50b5"/><path d="m158.88 440.465c-1.151-1.082-2.29-2.185-3.415-3.31-10.519-10.519-19.154-22.207-25.907-34.647.099-11.605 1.823-23.199 5.173-34.41 43.461-13.523 90.057-2.926 123.29 30.307.923.923 1.829 1.857 2.716 2.802 8.238 8.766 12.931 18.784 15.63 28.174-25.831 33.947-76.734 49.383-117.487 11.084z" fill="#ff72c3"/><path d="m118.72 278.871 11.557 6.321c1.387.759 1.387 2.751 0 3.509l-11.557 6.321c-.336.184-.611.459-.795.795l-6.321 11.557c-.759 1.387-2.751 1.387-3.509 0l-6.321-11.557c-.184-.336-.459-.611-.795-.795l-11.557-6.321c-1.387-.759-1.387-2.751 0-3.509l11.557-6.321c.336-.184.611-.459.795-.795l6.321-11.557c.759-1.387 2.751-1.387 3.509 0l6.321 11.557c.183.336.459.612.795.795zm296.537-45.296 7.281 3.982c.694.379.694 1.375 0 1.755l-7.281 3.982c-.168.092-.306.23-.397.398l-3.982 7.281c-.379.694-1.375.694-1.755 0l-3.982-7.281c-.092-.168-.23-.306-.397-.398l-7.281-3.982c-.694-.379-.694-1.375 0-1.755l7.281-3.982c.168-.092.306-.23.397-.398l3.982-7.281c.379-.694 1.375-.694 1.755 0l3.982 7.281c.091.168.229.306.397.398zm-261.173 19.498 7.281 3.982c.694.379.694 1.375 0 1.755l-7.281 3.982c-.168.092-.306.23-.398.398l-3.982 7.281c-.379.694-1.375.694-1.755 0l-3.982-7.281c-.092-.168-.23-.306-.398-.398l-7.281-3.982c-.694-.379-.694-1.375 0-1.755l7.281-3.982c.168-.092.306-.23.398-.398l3.982-7.281c.379-.694 1.375-.694 1.755 0l3.982 7.281c.092.168.23.306.398.398z" fill="#fff5f5"/></g></svg>